<svg width="171" height="171" viewBox="0 0 171 171" fill="none" xmlns="http://www.w3.org/2000/svg">
<path d="M158.013 109.476L170.168 97.321L158.013 85.166L127.668 115.511L54.823 42.666L85.168 12.321L73.013 0.166016L60.858 12.321L48.703 0.166016L30.513 18.356L18.358 6.20102L6.20297 18.356L18.358 30.511L0.167969 48.701L12.323 60.856L0.167969 73.011L12.323 85.166L42.668 54.821L115.513 127.666L85.168 158.011L97.323 170.166L109.478 158.011L121.633 170.166L139.823 151.976L151.978 164.131L164.133 151.976L151.978 139.821L170.168 121.631L158.013 109.476Z" fill="#AACE9B"/>
</svg>
