<svg width="42" height="42" viewBox="0 0 42 42" fill="none" xmlns="http://www.w3.org/2000/svg">
<path fill-rule="evenodd" clip-rule="evenodd" d="M33.25 8.75H8.75C7.7835 8.75 7 9.5335 7 10.5C7 11.4665 7.7835 12.25 8.75 12.25H33.25C34.2165 12.25 35 11.4665 35 10.5C35 9.5335 34.2165 8.75 33.25 8.75ZM33.25 19.25H8.75C7.7835 19.25 7 20.0335 7 21C7 21.9665 7.7835 22.75 8.75 22.75H33.25C34.2165 22.75 35 21.9665 35 21C35 20.0335 34.2165 19.25 33.25 19.25ZM8.75 29.75H33.25C34.2165 29.75 35 30.5335 35 31.5C35 32.4665 34.2165 33.25 33.25 33.25H8.75C7.7835 33.25 7 32.4665 7 31.5C7 30.5335 7.7835 29.75 8.75 29.75Z" fill="#373867"/>
</svg>
