<svg width="42" height="41" viewBox="0 0 42 41" fill="none" xmlns="http://www.w3.org/2000/svg">
<path d="M36.748 0.136719C37.9415 0.136719 39.0861 0.610824 39.93 1.45474C40.7739 2.29865 41.248 3.44324 41.248 4.63672V36.1367C41.248 37.3302 40.7739 38.4748 39.93 39.3187C39.0861 40.1626 37.9415 40.6367 36.748 40.6367H5.24805C4.05457 40.6367 2.90998 40.1626 2.06607 39.3187C1.22215 38.4748 0.748047 37.3302 0.748047 36.1367V4.63672C0.748047 3.44324 1.22215 2.29865 2.06607 1.45474C2.90998 0.610824 4.05457 0.136719 5.24805 0.136719H36.748ZM35.623 35.0117V23.0867C35.623 21.1414 34.8503 19.2757 33.4747 17.9001C32.0991 16.5245 30.2334 15.7517 28.288 15.7517C26.3755 15.7517 24.148 16.9217 23.068 18.6767V16.1792H16.7905V35.0117H23.068V23.9192C23.068 22.1867 24.463 20.7692 26.1955 20.7692C27.031 20.7692 27.8322 21.1011 28.4229 21.6918C29.0137 22.2826 29.3455 23.0838 29.3455 23.9192V35.0117H35.623ZM9.47805 12.6467C10.4806 12.6467 11.442 12.2485 12.1509 11.5396C12.8598 10.8307 13.258 9.86924 13.258 8.86672C13.258 6.77422 11.5705 5.06422 9.47805 5.06422C8.46956 5.06422 7.50238 5.46484 6.78927 6.17795C6.07617 6.89105 5.67555 7.85823 5.67555 8.86672C5.67555 10.9592 7.38555 12.6467 9.47805 12.6467ZM12.6055 35.0117V16.1792H6.37305V35.0117H12.6055Z" fill="#686977"/>
</svg>
