<svg width="14" height="12" viewBox="0 0 14 12" fill="none" xmlns="http://www.w3.org/2000/svg">
<path fill-rule="evenodd" clip-rule="evenodd" d="M1.90908 0.272461H12.0908C13.1372 0.272461 13.9916 1.12186 13.9998 2.16638C14 2.17517 14.0001 2.18396 13.9999 2.19274V9.81784C13.9999 10.8693 13.1423 11.7269 12.0908 11.7269H1.90908C0.85763 11.7269 0 10.8693 0 9.81784V2.18154C0 1.13009 0.85763 0.272461 1.90908 0.272461ZM12.6593 1.89777C12.5541 1.68962 12.3376 1.54518 12.0907 1.54518H1.90899C1.66213 1.54518 1.44574 1.68955 1.34048 1.89763L7 5.85929L12.6593 1.89777ZM1.27263 3.40368L6.63507 7.15739C6.85418 7.31077 7.14582 7.31077 7.36493 7.15739L12.7271 3.40388V9.81784C12.7271 10.1664 12.4393 10.4542 12.0907 10.4542H1.90899C1.56045 10.4542 1.27263 10.1664 1.27263 9.81784V3.40368Z" fill="#F13312"/>
<mask id="mask0_1894_10229" style="mask-type:luminance" maskUnits="userSpaceOnUse" x="0" y="0" width="14" height="12">
<path fill-rule="evenodd" clip-rule="evenodd" d="M1.90908 0.272461H12.0908C13.1372 0.272461 13.9916 1.12186 13.9998 2.16638C14 2.17517 14.0001 2.18396 13.9999 2.19274V9.81784C13.9999 10.8693 13.1423 11.7269 12.0908 11.7269H1.90908C0.85763 11.7269 0 10.8693 0 9.81784V2.18154C0 1.13009 0.85763 0.272461 1.90908 0.272461ZM12.6593 1.89777C12.5541 1.68962 12.3376 1.54518 12.0907 1.54518H1.90899C1.66213 1.54518 1.44574 1.68955 1.34048 1.89763L7 5.85929L12.6593 1.89777ZM1.27263 3.40368L6.63507 7.15739C6.85418 7.31077 7.14582 7.31077 7.36493 7.15739L12.7271 3.40388V9.81784C12.7271 10.1664 12.4393 10.4542 12.0907 10.4542H1.90899C1.56045 10.4542 1.27263 10.1664 1.27263 9.81784V3.40368Z" fill="white"/>
</mask>
<g mask="url(#mask0_1894_10229)">
<path d="M-0.636719 -1.63672H14.6359V13.6359H-0.636719V-1.63672Z" fill="#AACE9B"/>
</g>
</svg>
