<svg width="43" height="44" viewBox="0 0 43 44" fill="none" xmlns="http://www.w3.org/2000/svg">
<path d="M21.998 4.46973C19.6999 4.46973 17.4243 4.93315 15.3011 5.83355C13.1779 6.73395 11.2487 8.05368 9.62368 9.7174C6.34179 13.0774 4.49805 17.6346 4.49805 22.3864C4.49805 30.3056 9.52055 37.0243 16.468 39.4072C17.343 39.5506 17.623 38.9951 17.623 38.5114V35.4835C12.7755 36.5585 11.743 33.0826 11.743 33.0826C10.938 31.0043 9.80055 30.4489 9.80055 30.4489C8.20805 29.3381 9.92305 29.3739 9.92305 29.3739C11.673 29.4993 12.6005 31.2193 12.6005 31.2193C14.123 33.9426 16.6955 33.1364 17.693 32.7064C17.8505 31.5418 18.3055 30.7535 18.7955 30.3056C14.9105 29.8576 10.833 28.3168 10.833 21.4906C10.833 19.5018 11.498 17.9072 12.6355 16.6351C12.4605 16.1872 11.848 14.3239 12.8105 11.9051C12.8105 11.9051 14.2805 11.4214 17.623 13.7326C19.0055 13.3385 20.5105 13.1414 21.998 13.1414C23.4855 13.1414 24.9905 13.3385 26.373 13.7326C29.7155 11.4214 31.1855 11.9051 31.1855 11.9051C32.148 14.3239 31.5355 16.1872 31.3605 16.6351C32.498 17.9072 33.163 19.5018 33.163 21.4906C33.163 28.3347 29.068 29.8397 25.1655 30.2876C25.7955 30.8431 26.373 31.936 26.373 33.6022V38.5114C26.373 38.9951 26.653 39.5685 27.5455 39.4072C34.493 37.0064 39.498 30.3056 39.498 22.3864C39.498 20.0335 39.0454 17.7037 38.1659 15.53C37.2865 13.3562 35.9974 11.3811 34.3724 9.7174C32.7474 8.05368 30.8182 6.73395 28.695 5.83355C26.5718 4.93315 24.2962 4.46973 21.998 4.46973Z" fill="#686977"/>
</svg>
