<svg width="47" height="47" viewBox="0 0 47 47" fill="none" xmlns="http://www.w3.org/2000/svg">
<path d="M23.998 14.7617C22.2922 14.7617 20.6246 15.2676 19.2063 16.2153C17.7879 17.163 16.6824 18.5101 16.0296 20.0861C15.3768 21.6621 15.206 23.3963 15.5388 25.0694C15.8716 26.7425 16.693 28.2793 17.8993 29.4855C19.1055 30.6917 20.6423 31.5132 22.3154 31.846C23.9885 32.1788 25.7227 32.008 27.2987 31.3552C28.8747 30.7024 30.2217 29.5969 31.1695 28.1785C32.1172 26.7601 32.623 25.0926 32.623 23.3867C32.6207 21.1 31.7112 18.9075 30.0942 17.2905C28.4772 15.6736 26.2848 14.7641 23.998 14.7617ZM23.998 29.1367C22.8608 29.1367 21.7491 28.7995 20.8035 28.1677C19.8579 27.5359 19.1209 26.6378 18.6857 25.5871C18.2505 24.5365 18.1367 23.3803 18.3585 22.2649C18.5804 21.1496 19.128 20.125 19.9322 19.3209C20.7363 18.5167 21.7609 17.9691 22.8763 17.7472C23.9917 17.5253 25.1478 17.6392 26.1985 18.0744C27.2492 18.5096 28.1472 19.2466 28.779 20.1922C29.4108 21.1378 29.748 22.2495 29.748 23.3867C29.748 24.9117 29.1422 26.3742 28.0639 27.4526C26.9856 28.5309 25.523 29.1367 23.998 29.1367ZM32.623 4.69922H15.373C12.7052 4.70207 10.1474 5.76314 8.26094 7.64961C6.37447 9.53608 5.3134 12.0939 5.31055 14.7617V32.0117C5.3134 34.6796 6.37447 37.2374 8.26094 39.1238C10.1474 41.0103 12.7052 42.0714 15.373 42.0742H32.623C35.2909 42.0714 37.8487 41.0103 39.7352 39.1238C41.6216 37.2374 42.6827 34.6796 42.6855 32.0117V14.7617C42.6827 12.0939 41.6216 9.53608 39.7352 7.64961C37.8487 5.76314 35.2909 4.70207 32.623 4.69922ZM39.8105 32.0117C39.8105 33.918 39.0533 35.7461 37.7054 37.094C36.3575 38.442 34.5293 39.1992 32.623 39.1992H15.373C13.4668 39.1992 11.6386 38.442 10.2907 37.094C8.9428 35.7461 8.18555 33.918 8.18555 32.0117V14.7617C8.18555 12.8555 8.9428 11.0273 10.2907 9.67939C11.6386 8.33147 13.4668 7.57422 15.373 7.57422H32.623C34.5293 7.57422 36.3575 8.33147 37.7054 9.67939C39.0533 11.0273 39.8105 12.8555 39.8105 14.7617V32.0117ZM35.498 14.043C35.498 14.4694 35.3716 14.8863 35.1347 15.2409C34.8977 15.5955 34.561 15.8719 34.167 16.0351C33.773 16.1983 33.3394 16.241 32.9211 16.1578C32.5029 16.0746 32.1187 15.8692 31.8171 15.5677C31.5155 15.2661 31.3102 14.8819 31.227 14.4636C31.1438 14.0454 31.1865 13.6118 31.3497 13.2178C31.5129 12.8238 31.7893 12.487 32.1438 12.2501C32.4984 12.0132 32.9153 11.8867 33.3418 11.8867C33.9137 11.8867 34.4621 12.1139 34.8665 12.5183C35.2709 12.9226 35.498 13.4711 35.498 14.043Z" fill="#686977"/>
</svg>
