<svg width="24" height="24" viewBox="0 0 24 24" fill="none" xmlns="http://www.w3.org/2000/svg">
<path fill-rule="evenodd" clip-rule="evenodd" d="M5.27024 9.04745L11.5702 4.14745C11.823 3.95085 12.177 3.95085 12.4298 4.14745L18.7298 9.04745C18.9003 9.18007 19 9.38399 19 9.6V17.3C19 18.4598 18.0598 19.4 16.9 19.4H14.1H9.9H7.1C5.9402 19.4 5 18.4598 5 17.3V9.6C5 9.38399 5.09973 9.18007 5.27024 9.04745ZM10.6 18H13.4V12.4H10.6V18ZM14.8 18V11.7C14.8 11.3134 14.4866 11 14.1 11H9.9C9.5134 11 9.2 11.3134 9.2 11.7V18H7.1C6.7134 18 6.4 17.6866 6.4 17.3V9.94235L12 5.58679L17.6 9.94235V17.3C17.6 17.6866 17.2866 18 16.9 18H14.8Z" fill="#AACE9B"/>
</svg>
