<svg width="275" height="275" viewBox="0 0 275 275" fill="none" xmlns="http://www.w3.org/2000/svg">
<g clip-path="url(#clip0_1894_10107)">
<path d="M108.521 37.9326L99.4946 46.8771L172.45 77.2177L133.27 37.8959C126.407 31.1562 115.375 31.0223 108.521 37.9326ZM72.8948 207.908L186.106 207.987C189.535 208.029 192.9 207.068 195.789 205.222C198.678 203.376 200.965 200.726 202.368 197.598C203.241 195.497 203.745 193.148 203.729 190.678L203.851 120.886C203.866 113.785 199.433 107.582 193.522 104.934C191.455 103.98 188.944 103.41 186.541 103.263L73.195 103.507C69.7633 103.419 66.3846 104.367 63.4988 106.226C60.6129 108.085 58.3534 110.77 57.0145 113.931C56.1409 116.031 55.7521 118.333 55.6392 120.656L55.5513 190.366C55.5261 194.992 57.3389 199.438 60.5912 202.728C63.8435 206.018 68.269 207.881 72.8948 207.908ZM96.4575 64.6618C92.172 62.8796 87.3541 62.8728 83.0636 64.6428C78.7731 66.4129 75.3614 69.8148 73.5792 74.1003L68.7072 85.8151L147.679 85.9641" fill="#AACE9B"/>
</g>
<defs>
<clipPath id="clip0_1894_10107">
<rect width="210" height="210" fill="white" transform="translate(0 193.9) rotate(-67.4185)"/>
</clipPath>
</defs>
</svg>
