<svg width="125" height="125" viewBox="0 0 125 125" fill="none" xmlns="http://www.w3.org/2000/svg">
<path d="M11.2962 55.3699H101.478V27.8143H11.2962V55.3699ZM95.8416 124.259V103.592H78.9325V89.8143H95.8416V69.1477H107.114V89.8143H124.023V103.592H107.114V124.259H95.8416ZM11.2962 110.481C8.19616 110.481 5.54332 109.133 3.33762 106.437C1.12817 103.737 0.0234375 100.492 0.0234375 96.7032V14.0366C0.0234375 10.2477 1.12817 7.00531 3.33762 4.30945C5.54332 1.60901 8.19616 0.258789 11.2962 0.258789H101.478C104.578 0.258789 107.233 1.60901 109.442 4.30945C111.648 7.00531 112.751 10.2477 112.751 14.0366V55.3699H95.8416C88.0446 55.3699 81.3994 58.7271 75.9058 65.4415C70.4085 72.1604 67.6598 80.2847 67.6598 89.8143V110.481H11.2962Z" fill="#AACE9B"/>
</svg>
