<svg width="203" height="202" viewBox="0 0 203 202" fill="none" xmlns="http://www.w3.org/2000/svg">
<path d="M145.906 56.8125H31.7188C24.7116 56.8125 19.0312 62.4649 19.0312 69.4375V157.812C19.0312 164.785 24.7116 170.437 31.7188 170.437H145.906C152.913 170.437 158.594 164.785 158.594 157.812V69.4375C158.594 62.4649 152.913 56.8125 145.906 56.8125Z" fill="#AACE9B"/>
<path d="M171.281 31.5625H50.75C49.0675 31.5625 47.454 32.2276 46.2643 33.4114C45.0746 34.5952 44.4062 36.2008 44.4062 37.875C44.4062 39.5492 45.0746 41.1548 46.2643 42.3386C47.454 43.5224 49.0675 44.1875 50.75 44.1875H171.281V138.875C171.281 140.549 171.95 142.155 173.139 143.339C174.329 144.522 175.943 145.187 177.625 145.187C179.307 145.187 180.921 144.522 182.111 143.339C183.3 142.155 183.969 140.549 183.969 138.875V44.1875C183.969 40.8391 182.632 37.6279 180.253 35.2603C177.873 32.8926 174.646 31.5625 171.281 31.5625Z" fill="#AACE9B"/>
</svg>
