<svg width="41" height="33" viewBox="0 0 41 33" fill="none" xmlns="http://www.w3.org/2000/svg">
<path d="M40.1107 3.88704C38.667 4.55788 37.1107 4.99871 35.4982 5.20954C37.1482 4.19371 38.4232 2.58371 39.0232 0.647877C37.467 1.60621 35.742 2.27704 33.9232 2.66038C32.442 1.01204 30.3607 0.0537109 27.9982 0.0537109C23.592 0.0537109 19.992 3.73371 19.992 8.27621C19.992 8.92788 20.067 9.56038 20.1982 10.1545C13.5232 9.80954 7.57949 6.53204 3.62324 1.56788C2.92949 2.77538 2.53574 4.19371 2.53574 5.68871C2.53574 8.54454 3.94199 11.0745 6.11699 12.512C4.78574 12.512 3.54824 12.1287 2.46074 11.5537V11.6112C2.46074 15.5979 5.23574 18.9329 8.91074 19.6804C7.73085 20.0104 6.49217 20.0564 5.29199 19.8145C5.80125 21.4485 6.79862 22.8782 8.1439 23.9027C9.48917 24.9272 11.1147 25.495 12.792 25.5262C9.9488 27.8271 6.42448 29.0707 2.79824 29.0529C2.16074 29.0529 1.52324 29.0145 0.885742 28.9379C4.44824 31.2762 8.68574 32.637 13.2232 32.637C27.9982 32.637 36.117 20.102 36.117 9.23454C36.117 8.87038 36.117 8.52538 36.0982 8.16121C37.6732 7.01121 39.0232 5.55454 40.1107 3.88704Z" fill="#686977"/>
</svg>
